<?xml version="1.0" encoding="UTF-8" standalone="no"?>
<!-- Created with Inkscape (http://www.inkscape.org/) -->

<svg
   xmlns:dc="http://purl.org/dc/elements/1.1/"
   xmlns:cc="http://creativecommons.org/ns#"
   xmlns:rdf="http://www.w3.org/1999/02/22-rdf-syntax-ns#"
   xmlns:svg="http://www.w3.org/2000/svg"
   xmlns="http://www.w3.org/2000/svg"
   xmlns:sodipodi="http://sodipodi.sourceforge.net/DTD/sodipodi-0.dtd"
   xmlns:inkscape="http://www.inkscape.org/namespaces/inkscape"
   width="744.09448819"
   height="1052.3622047"
   id="svg2"
   version="1.1"
   inkscape:version="0.48.2 r9819"
   sodipodi:docname="fkull.svg">
  <defs
     id="defs4" />
  <sodipodi:namedview
     id="base"
     pagecolor="#ffffff"
     bordercolor="#666666"
     borderopacity="1.0"
     inkscape:pageopacity="0.0"
     inkscape:pageshadow="2"
     inkscape:zoom="1.3511628"
     inkscape:cx="84.789157"
     inkscape:cy="888.21429"
     inkscape:document-units="px"
     inkscape:current-layer="g2994"
     showgrid="false"
     inkscape:window-width="1375"
     inkscape:window-height="965"
     inkscape:window-x="92"
     inkscape:window-y="0"
     inkscape:window-maximized="0" />
  <metadata
     id="metadata7">
    <rdf:RDF>
      <cc:Work
         rdf:about="">
        <dc:format>image/svg+xml</dc:format>
        <dc:type
           rdf:resource="http://purl.org/dc/dcmitype/StillImage" />
        <dc:title />
      </cc:Work>
    </rdf:RDF>
  </metadata>
  <g
     inkscape:label="Layer 1"
     inkscape:groupmode="layer"
     id="layer1">
    <g
       id="g20123"
       transform="translate(157.14286,-137.14286)">
      <g
         id="g2994"
         transform="translate(-1.4802055,-1.4802064)">
        <path
           style="fill:#5d5d5d"
           d="M 25.78125 0.6875 L 24.625 3.1875 C 23.73449 5.14197 22.75685 5.6875 20.09375 5.6875 C 17.56371 5.6875 16.24788 6.33069 15.03125 8.1875 C 14.13031 9.5625 12.74982 10.6875 11.9375 10.6875 C 11.12518 10.6875 10.46875 11.30076 10.46875 12.0625 C 10.46875 12.82424 9.34375 14.19282 7.96875 15.09375 C 6.08841 16.3258 5.46875 17.58001 5.46875 20.21875 C 5.46875 22.64738 4.93018 23.92804 3.71875 24.375 C 2.75625 24.73012 1.62283 25.50363 1.21875 26.09375 C 0.2599 27.49406 0.2599 64.84969 1.21875 66.25 C 1.62283 66.84012 2.75625 67.61363 3.71875 67.96875 C 4.906 68.40679 5.46875 69.67739 5.46875 71.9375 C 5.46875 76.59469 6.99311 77.6875 13.65625 77.6875 C 19.39795 77.6875 19.46875 77.7049 19.46875 80.59375 C 19.46875 82.19877 19.72514 84.24585 20.0625 85.125 C 20.6062 86.54188 23.58823 86.67386 46.3125 86.4375 L 71.96875 86.1875 L 72.46875 82.1875 L 72.96875 78.1875 L 78.90625 77.875 C 86.0442 77.50846 87.46875 76.54484 87.46875 71.96875 C 87.46875 69.33857 87.95331 68.36504 89.46875 67.96875 C 91.38805 67.46684 91.46875 66.60093 91.46875 46.59375 C 91.46875 26.98465 91.32452 25.69521 89.5 24.71875 C 88.2233 24.03548 87.45415 22.40363 87.25 19.9375 C 87.02499 17.21949 86.33745 15.91557 84.75 15.21875 C 83.54635 14.69041 82.35111 13.45291 82.09375 12.46875 C 81.83639 11.4846 80.92135 10.6875 80.03125 10.6875 C 79.14115 10.6875 77.99152 9.5625 77.46875 8.1875 C 76.71138 6.19547 75.81067 5.6875 73.09375 5.6875 C 70.56018 5.6875 69.24839 5.0451 68.03125 3.1875 L 66.40625 0.6875 L 46.09375 0.6875 L 25.78125 0.6875 z M 61.46875 5.625 L 62.4375 8.15625 C 63.24638 10.28377 64.05825 10.6875 67.46875 10.6875 C 70.86809 10.6875 71.67086 11.08889 72.46875 13.1875 C 72.99152 14.5625 74.07345 15.6875 74.875 15.6875 C 75.67655 15.6875 76.59731 16.55313 76.9375 17.625 C 77.2777 18.69686 78.42814 19.8473 79.5 20.1875 C 80.88895 20.62833 81.45785 21.73174 81.46875 24 C 81.48639 27.66627 82.26015 29.06163 84.71875 29.96875 C 86.28279 30.54581 86.46875 32.27845 86.46875 46.1875 C 86.46875 60.09655 86.28279 61.79794 84.71875 62.375 C 82.25047 63.28569 81.48635 64.70524 81.46875 68.4375 C 81.45406 71.55512 81.30332 71.6875 77.5 71.6875 C 74.51994 71.6875 73.23504 71.1736 72.40625 69.625 C 71.79979 68.49182 70.55039 67.69939 69.625 67.875 C 68.31895 68.12286 67.85687 69.6489 67.46875 74.6875 L 66.96875 81.1875 L 62.96875 81.1875 C 59.12812 81.1875 58.94348 81.0442 58.625 77.6875 C 57.96572 70.73908 53.46875 69.89228 53.46875 76.71875 C 53.46875 78.82745 52.98035 80.86394 52.40625 81.21875 C 50.60515 82.3319 48.46875 79.56507 48.46875 76.15625 C 48.46875 72.68695 46.30309 70.94037 44.59375 73 C 44.04847 73.65701 43.46369 75.76471 43.28125 77.6875 C 42.8278 82.46672 40.07847 82.46672 39.625 77.6875 C 38.95057 70.57933 34.75706 70.07007 34.25 77.03125 C 33.9566 81.05914 33.82317 81.19928 30.1875 81.5 C 25.85659 81.85823 25.61164 81.47774 25.21875 73.6875 C 24.97801 68.91395 24.65952 68.14258 22.78125 67.875 C 21.29658 67.6635 20.42855 68.23881 19.96875 69.6875 C 19.40499 71.4638 18.62901 71.72394 15.125 71.46875 C 11.07278 71.17363 10.93336 71.06848 10.625 67.3125 C 10.3938 64.49636 9.78485 63.30618 8.375 62.9375 C 6.56426 62.46398 6.46875 61.42532 6.46875 46.1875 C 6.46875 30.76177 6.57215 29.87097 8.46875 29.375 C 10.00347 28.97366 10.46875 28.02406 10.46875 25.25 C 10.46875 22.36436 10.97318 21.40924 12.96875 20.5 C 14.34375 19.8735 15.46875 18.75033 15.46875 18 C 15.46875 17.24967 16.51269 16.21294 17.8125 15.71875 C 19.11232 15.22456 20.42005 13.8922 20.71875 12.75 C 21.15008 11.10059 22.06202 10.6875 25.125 10.6875 C 28.16519 10.6875 29.19057 10.21123 29.96875 8.4375 C 30.92225 6.26416 31.47405 6.17297 46.21875 5.90625 L 61.46875 5.625 z M 27.125 19.5625 L 22.5 24.625 C 19.95751 27.40513 17.32378 29.6875 16.65625 29.6875 C 15.34849 29.6875 14.85513 46.73014 16.125 48 C 16.49166 48.36667 19.35492 48.6875 22.5 48.6875 C 27.49607 48.6875 28.44384 48.37173 29.875 46.1875 C 30.77594 44.8125 32.15643 43.6875 32.96875 43.6875 C 33.78106 43.6875 34.46875 43.04299 34.46875 42.28125 C 34.46875 41.51951 35.60397 40.16471 37 39.25 C 39.43838 37.65231 39.52689 37.23457 39.25 28.875 L 38.96875 20.1875 L 33.03125 19.875 L 27.125 19.5625 z M 63.6875 19.78125 C 62.803151 19.769983 61.683435 19.805228 60.21875 19.875 L 53.96875 20.1875 L 53.65625 29.34375 C 53.39372 37.74805 53.55565 38.57881 55.375 39.15625 C 56.466933 39.50281 57.62855 40.64689 57.96875 41.71875 C 58.30894 42.79062 59.23152 43.6875 60.03125 43.6875 C 60.83097 43.6875 62.01933 44.82087 62.65625 46.21875 C 63.74812 48.61516 64.17981 48.74369 70.375 48.46875 L 76.96875 48.1875 L 77.25 39.4375 C 77.52897 30.98725 77.43166 30.64196 75.0625 29.5625 C 73.71267 28.94747 72.39513 27.59546 72.125 26.5625 C 71.85488 25.52955 71.00696 24.6875 70.21875 24.6875 C 69.43055 24.6875 68.26344 23.52624 67.625 22.125 C 66.80885 20.333753 66.340547 19.815051 63.6875 19.78125 z M 51.71875 48.8125 C 51.558205 48.819305 51.399817 48.849284 51.21875 48.875 C 49.25014 49.15459 48.92468 49.85464 48.65625 54.5625 C 48.48752 57.52194 48.5738 60.59007 48.875 61.375 C 49.25887 62.37532 50.70213 62.71585 53.6875 62.5 C 57.809733 62.20196 57.95309 62.07113 58.25 58.5 C 58.50248 55.46334 58.10423 54.50374 56 53.125 C 54.593777 52.20361 53.46875 50.8 53.46875 50 C 53.46875 49.180624 52.842563 48.764863 51.71875 48.8125 z M 41.28125 48.84375 C 40.124771 48.82978 39.374885 49.381329 39 50.5625 C 38.64962 51.66643 37.47811 52.8473 36.40625 53.1875 C 34.85587 53.67957 34.46875 54.74261 34.46875 58.3125 L 34.46875 62.78125 L 39.21875 62.5 L 43.96875 62.1875 L 43.96875 55.6875 C 43.96875 49.78484 43.74648 49.15497 41.78125 48.875 C 41.599315 48.849082 41.446461 48.845746 41.28125 48.84375 z M 33.46875 90.8125 C 23.170494 90.821299 21.566873 91.184033 20.71875 92.34375 C 19.0821 94.58167 19.02712 107.87086 20.65625 109.5 C 21.5618 110.4056 28.27495 110.636 46.90625 110.4375 L 71.96875 110.1875 L 71.96875 100.6875 L 71.96875 91.1875 L 46.96875 90.90625 C 41.31456 90.845615 36.901502 90.809567 33.46875 90.8125 z M 27.0625 96.59375 C 27.781984 96.498692 28.661803 97.179709 29.46875 98.6875 C 30.05745 99.7875 31.3585 100.6875 32.375 100.6875 C 33.39149 100.6875 34.46234 99.7875 34.75 98.6875 C 35.03765 97.5875 35.94182 96.6875 36.78125 96.6875 C 37.62068 96.6875 38.61962 97.5875 38.96875 98.6875 C 39.32839 99.82061 40.47702 100.6875 41.625 100.6875 C 42.81022 100.6875 43.85032 99.85738 44.15625 98.6875 C 44.44391 97.5875 45.49704 96.6875 46.46875 96.6875 C 47.44045 96.6875 48.46234 97.5875 48.75 98.6875 C 49.05052 99.83671 50.11401 100.6875 51.25 100.6875 C 52.38598 100.6875 53.44947 99.83671 53.75 98.6875 C 54.03766 97.5875 54.941827 96.6875 55.78125 96.6875 C 56.62068 96.6875 57.61962 97.5875 57.96875 98.6875 C 58.81119 101.34182 62.48965 101.29358 63.1875 98.625 C 63.50218 97.42167 64.39169 96.69488 65.34375 96.875 C 67.41613 97.26706 68.16441 103.61855 66.28125 104.8125 C 64.72131 105.80153 27.10118 105.97618 26.125 105 C 25.75833 104.63334 25.46875 102.60834 25.46875 100.5 C 25.46875 98.085896 26.137449 96.715968 27.0625 96.59375 z "
           transform="translate(-155.66265,138.62307)"
           id="path20127" />
      </g>
    </g>
  </g>
</svg>
